HIERARCHY
ROOT joint_Root
{
  OFFSET 0 0 0
  CHANNELS 6 Xposition Yposition Zposition Zrotation Xrotation Yrotation
  JOINT Hips
  {
    OFFSET 0 93.9241 -3
    CHANNELS 6 Xposition Yposition Zposition Zrotation Xrotation Yrotation
    JOINT Spine
    {
      OFFSET 15.7357 0 0
      CHANNELS 6 Xposition Yposition Zposition Zrotation Xrotation Yrotation
      JOINT Chest
      {
        OFFSET 8.98455 -0.406207 0
        CHANNELS 6 Xposition Yposition Zposition Zrotation Xrotation Yrotation
        JOINT Neck
        {
          OFFSET 16.3773 0 0
          CHANNELS 6 Xposition Yposition Zposition Zrotation Xrotation Yrotation
          JOINT Head
          {
            OFFSET 6.45672 0 0
            CHANNELS 6 Xposition Yposition Zposition Zrotation Xrotation Yrotation
            End Site
            {
              OFFSET 0 0 0
            }
          }
        }
        JOINT Shoulder_L
        {
          OFFSET 12.9942 -0.242716 4.98039
          CHANNELS 6 Xposition Yposition Zposition Zrotation Xrotation Yrotation
          JOINT UpperArm_L
          {
            OFFSET 5.34809 0 0
            CHANNELS 6 Xposition Yposition Zposition Zrotation Xrotation Yrotation
            JOINT LowerArm_L
            {
              OFFSET 24.3286 1.87007e-05 0
              CHANNELS 6 Xposition Yposition Zposition Zrotation Xrotation Yrotation
              JOINT Hand_L
              {
                OFFSET 22.2916 0 0
                CHANNELS 6 Xposition Yposition Zposition Zrotation Xrotation Yrotation
                End Site
                {
                  OFFSET 0 0 0
                }
              }
            }
          }
        }
        JOINT Shoulder_R
        {
          OFFSET 12.9945 -0.242716 -4.98039
          CHANNELS 6 Xposition Yposition Zposition Zrotation Xrotation Yrotation
          JOINT UpperArm_R
          {
            OFFSET -5.34813 0 0
            CHANNELS 6 Xposition Yposition Zposition Zrotation Xrotation Yrotation
            JOINT LowerArm_R
            {
              OFFSET -24.3289 0.000322201 0
              CHANNELS 6 Xposition Yposition Zposition Zrotation Xrotation Yrotation
              JOINT Hand_R
              {
                OFFSET -22.2915 -0.000108084 0
                CHANNELS 6 Xposition Yposition Zposition Zrotation Xrotation Yrotation
                End Site
                {
                  OFFSET 0 0 0
                }
              }
            }
          }
        }
      }
    }
    JOINT UpperLeg_L
    {
      OFFSET -2.19248 -6.46944 0
      CHANNELS 6 Xposition Yposition Zposition Zrotation Xrotation Yrotation
      JOINT LowerLeg_L
      {
        OFFSET 39.0811 0 -1.23785e-05
        CHANNELS 6 Xposition Yposition Zposition Zrotation Xrotation Yrotation
        JOINT Foot_L
        {
          OFFSET 40.9854 0 -1.26872e-05
          CHANNELS 6 Xposition Yposition Zposition Zrotation Xrotation Yrotation
          JOINT Toes_L
          {
            OFFSET 11.7543 0 0
            CHANNELS 6 Xposition Yposition Zposition Zrotation Xrotation Yrotation
            End Site
            {
              OFFSET 0 0 0
            }
          }
        }
      }
    }
    JOINT UpperLeg_R
    {
      OFFSET -2.19251 6.46944 0
      CHANNELS 6 Xposition Yposition Zposition Zrotation Xrotation Yrotation
      JOINT LowerLeg_R
      {
        OFFSET -39.0811 -0.00228153 -0.0401928
        CHANNELS 6 Xposition Yposition Zposition Zrotation Xrotation Yrotation
        JOINT Foot_R
        {
          OFFSET -40.9854 0 0
          CHANNELS 6 Xposition Yposition Zposition Zrotation Xrotation Yrotation
          JOINT Toes_R
          {
            OFFSET -11.7543 0 0
            CHANNELS 6 Xposition Yposition Zposition Zrotation Xrotation Yrotation
            End Site
            {
              OFFSET 0 0 0
            }
          }
        }
      }
    }
  }
}
MOTION
Frames:	4
Frame Time:	0.0333333
0 0 0 0 0 -0 -2.13843 91.0341 -12.0013 87.6925 -35.2245 -0.428214 15.7357 5.1072e-06 -5.51765e-07 156.834 86.6339 -157.13 8.98455 -0.406207 -4.3199e-07 -5.11775 6.21588 -0.313957 16.3773 -1.3905e-06 -6.99897e-07 -11.0573 5.23535 3.07313 6.45672 -1.25837e-06 -1.02172e-07 -1.07451 4.92352 3.67091 12.9942 -0.242716 4.98039 -90.1858 0.728537 -90.694 5.34809 -7.22636e-06 -6.2814e-07 -69.2904 -5.9735 19.0274 24.3286 1.87007e-05 4.90208e-06 6.20736 12.308 -27.0322 22.2916 -9.88446e-07 4.63217e-06 2.46159 5.18823 3.01282 12.9945 -0.242716 -4.98039 89.6015 3.18627 -97.8679 -5.34813 -1.25947e-06 -3.79883e-06 -71.3984 -2.55899 15.4853 -24.3289 0.000322201 -8.65921e-06 7.13534 15.5891 -24.9804 -22.2915 -0.000108084 -4.47941e-06 9.61061 5.37573 -2.1644 -2.19248 -6.46944 -1.22534e-07 -176.845 -16.804 -19.0513 39.0811 -6.73843e-06 -1.23785e-05 0.0341686 -0.0505372 31.1993 40.9854 -6.48686e-06 -1.26872e-05 -2.18717 -10.5868 -61.3527 11.7543 -2.30145e-07 3.05095e-06 0.13988 -0.159364 -18.1228 -2.19251 6.46944 -1.45247e-06 -169.873 15.1253 174.362 -39.0811 -0.00228153 -0.0401928 0.113415 -0.229594 21.5862 -40.9854 7.72618e-06 5.99936e-06 5.4106 -12.6547 -67.7385 -11.7543 -5.6619e-06 -5.58687e-06 -0.210063 0.131828 -16.5733 
0 0 0 0 0 -0 -2.16162 91.0223 -11.9151 87.7451 -34.962 -0.37763 15.7357 5.1072e-06 -5.51765e-07 156.527 86.6444 -156.777 8.98455 -0.406207 -4.3199e-07 -5.09531 6.17722 -0.225933 16.3773 -1.3905e-06 -6.99897e-07 -10.9123 5.17758 3.02537 6.45672 -1.25837e-06 -1.02172e-07 -1.09504 4.85765 3.76328 12.9942 -0.242716 4.98039 -90.157 0.619765 -90.7847 5.34809 -7.22636e-06 -6.2814e-07 -69.6006 -6.05209 18.9217 24.3286 1.87007e-05 4.90208e-06 6.24435 12.1924 -27.3882 22.2916 -9.88446e-07 4.63217e-06 2.53565 5.18776 3.02438 12.9945 -0.242716 -4.98039 89.6019 3.16792 -97.8341 -5.34813 -1.25947e-06 -3.79883e-06 -71.3451 -2.85555 15.7123 -24.3289 0.000322201 -8.65921e-06 7.13344 15.5864 -24.978 -22.2915 -0.000108084 -4.47941e-06 9.67348 5.3773 -2.21335 -2.19248 -6.46944 -1.22534e-07 -176.908 -16.3856 -19.0454 39.0811 -6.73843e-06 -1.23785e-05 0.0319938 -0.0475295 31.265 40.9854 -6.48686e-06 -1.26872e-05 -2.23043 -10.8354 -61.4343 11.7543 -2.30145e-07 3.05095e-06 0.133991 -0.152477 -18.0567 -2.19251 6.46944 -1.45247e-06 -169.942 15.1934 174.371 -39.0811 -0.00228153 -0.0401928 0.112313 -0.225048 21.6903 -40.9854 7.72618e-06 5.99936e-06 5.30589 -12.8251 -67.8531 -11.7543 -5.6619e-06 -5.58687e-06 -0.216023 0.135007 -16.5735 
0 0 0 0 0 -0 -2.17389 91.0064 -11.8778 87.6935 -34.7488 -0.410783 15.7357 5.1072e-06 -5.51765e-07 156.131 86.6374 -156.313 8.98455 -0.406207 -4.3199e-07 -5.05066 6.16383 -0.0924133 16.3773 -1.3905e-06 -6.99897e-07 -10.7093 5.14489 3.065 6.45672 -1.25837e-06 -1.02172e-07 -1.24852 4.90084 3.85435 12.9942 -0.242716 4.98039 -90.1276 0.506017 -90.8575 5.34809 -7.22636e-06 -6.2814e-07 -69.9277 -6.04449 18.7852 24.3286 1.87007e-05 4.90208e-06 6.37412 12.2346 -27.7955 22.2916 -9.88446e-07 4.63217e-06 2.59585 5.19183 2.92347 12.9945 -0.242716 -4.98039 89.6046 3.13442 -97.8065 -5.34813 -1.25947e-06 -3.79883e-06 -71.3199 -2.95151 15.7324 -24.3289 0.000322201 -8.65921e-06 7.01638 15.5966 -24.5997 -22.2915 -0.000108084 -4.47941e-06 9.51255 5.37609 -2.17612 -2.19248 -6.46944 -1.22534e-07 -176.885 -16.0143 -19.1271 39.0811 -6.73843e-06 -1.23785e-05 0.0253192 -0.0374875 31.3781 40.9854 -6.48686e-06 -1.26872e-05 -2.28985 -11.1541 -61.4973 11.7543 -2.30145e-07 3.05095e-06 0.132161 -0.150329 -18.0362 -2.19251 6.46944 -1.45247e-06 -169.863 15.0862 174.344 -39.0811 -0.00228153 -0.0401928 0.115664 -0.232708 21.7301 -40.9854 7.72618e-06 5.99936e-06 5.22912 -13.1415 -67.888 -11.7543 -5.6619e-06 -5.58687e-06 -0.209156 0.13016 -16.5734 
0 0 0 0 0 -0 -2.17012 90.9941 -11.8717 87.6068 -34.6282 -0.498762 15.7357 5.1072e-06 -5.51765e-07 155.88 86.6262 -155.992 8.98455 -0.406207 -4.3199e-07 -5.01816 6.16465 0.0457212 16.3773 -1.3905e-06 -6.99897e-07 -10.455 5.15668 3.18075 6.45672 -1.25837e-06 -1.02172e-07 -1.44685 4.98725 3.94968 12.9942 -0.242716 4.98039 -90.0962 0.382909 -90.9081 5.34809 -7.22636e-06 -6.2814e-07 -70.2786 -5.93306 18.6733 24.3286 1.87007e-05 4.90208e-06 6.42658 12.1348 -28.1836 22.2916 -9.88446e-07 4.63217e-06 2.65386 5.19175 2.92517 12.9945 -0.242716 -4.98039 89.608 3.10441 -97.8008 -5.34813 -1.25947e-06 -3.79883e-06 -71.3356 -2.92109 15.6536 -24.3289 0.000322201 -8.65921e-06 6.88043 15.6828 -24.0593 -22.2915 -0.000108084 -4.47941e-06 9.47417 5.37454 -2.12754 -2.19248 -6.46944 -1.22534e-07 -176.85 -15.7783 -19.249 39.0811 -6.73843e-06 -1.23785e-05 0.0202177 -0.0304111 31.4831 40.9854 -6.48686e-06 -1.26872e-05 -2.32792 -11.4248 -61.5436 11.7543 -2.30145e-07 3.05095e-06 0.133024 -0.151338 -18.0459 -2.19251 6.46944 -1.45247e-06 -169.785 15.2247 174.282 -39.0811 -0.00228153 -0.0401928 0.115904 -0.233095 21.7568 -40.9854 7.72618e-06 5.99936e-06 5.22432 -13.1068 -67.9142 -11.7543 -5.6619e-06 -5.58687e-06 -0.217653 0.135235 -16.5735 
